<?xml version="1.0" encoding="utf-8"?>
<!-- Generator: Adobe Illustrator 23.0.0, SVG Export Plug-In . SVG Version: 6.00 Build 0)  -->
<svg version="1.1" id="Capa_1" xmlns="http://www.w3.org/2000/svg" xmlns:xlink="http://www.w3.org/1999/xlink" x="0px" y="0px"
	 viewBox="0 0 494.2 201.7" style="enable-background:new 0 0 494.2 201.7;" xml:space="preserve">
<style type="text/css">
	.st0{fill:#214031;}
	.st1{fill-rule:evenodd;clip-rule:evenodd;fill:#214031;}
</style>
<path class="st0" d="M460.3,24.1c-4.1,4.2-10.5,4.6-15.1,1.3c2.7-1.7,5.8-3.9,8.8-6.7c0,0,0.1,0,0.1,0c0.1,0,0.3,0,0.5,0
	c0.2,0,0.4,0,0.6,0s0.4,0,0.6,0c0.2,0,0.4,0,0.6,0c0.2,0,0.4,0,0.6,0c0.2,0,0.4,0,0.6,0c0.2,0,0.4,0,0.6,0c0.2,0,0.4,0,0.5,0
	c0.3,0,0.6,0,0.8,0c0.2,0,0.3,0,0.3,0c0-0.1-0.1-0.1-0.2-0.2c0-0.1-0.1-0.2-0.3-0.2c-0.1-0.1-0.3-0.2-0.4-0.3
	c-0.2-0.1-0.3-0.2-0.5-0.2c-0.2,0-0.4-0.1-0.6-0.2c-0.2,0-0.4-0.1-0.6-0.1c-0.2,0-0.5,0-0.7,0c-0.2,0-0.4,0-0.7,0
	c-0.1,0-0.2,0-0.3,0c1.6-1.5,6.2-7.2,5.8-7.4c-0.3-0.3-7.4,7-9.9,9.1c0-0.1,0.1-0.1,0.1-0.2c0.2-0.4,0.3-0.8,0.4-1.2
	c0.1-0.5,0.2-0.9,0.3-1.3c0.1-0.4,0.1-0.9,0.1-1.3c0-0.4,0-0.9,0-1.3c0-0.4-0.1-0.8-0.2-1.1c-0.1-0.4-0.2-0.7-0.3-1.1
	c-0.1-0.3-0.3-0.6-0.4-0.8c-0.1-0.3-0.3-0.5-0.4-0.6c-0.2-0.2-0.3-0.3-0.4-0.4c0,0.1,0.1,0.3,0.2,0.6c0.1,0.2,0.1,0.4,0.2,0.6
	c0,0.3,0.1,0.6,0.1,0.8c0,0.3,0,0.6,0,1c0,0.3,0,0.7,0,1.1c0,0.4,0,0.8,0,1.2c0,0.4-0.1,0.8-0.1,1.2c0,0.4-0.1,0.8-0.2,1.2
	c-0.1,0.4-0.2,0.8-0.3,1.1c-0.1,0.4-0.2,0.7-0.3,1.1c-0.1,0.3-0.2,0.6-0.3,0.8c-2,1.6-3.9,2.8-5.6,3.9c0,0-0.1-0.1-0.1-0.1
	c-4.6-4.5-4.7-11.8-0.2-16.3c4.5-4.6,17.3-3.8,23.3-7.4C468.1,7.5,464.8,19.5,460.3,24.1L460.3,24.1z"/>
<path class="st0" d="M410.3,29.7h-13.8v92.8c0,5.1-4.2,9.1-9.5,9.1c-5.1,0-9.3-4.1-9.3-9.1V29.7h-14c-5.1,0-9.4-4.1-9.4-9.1
	s4.2-9.1,9.4-9.1h46.7c5.3,0,9.5,4,9.5,9.1C419.8,25.7,415.6,29.7,410.3,29.7L410.3,29.7z"/>
<path class="st0" d="M75.8,108.3c0.6,2.3,0.2,4.8-1.1,6.9c-6,10.2-17.3,16.6-29.5,16.6c-2.9,0-5.8-0.4-8.7-1.1
	c-14.8-4-25.2-17.3-25.2-32.2V44.8c0-15.1,10.4-28.2,25.2-32c2.9-0.8,5.9-1.2,9-1.2c12,0,23.2,6.3,29.2,16.5
	c1.3,2.1,1.7,4.6,1.1,6.9c-0.6,2.4-2.2,4.5-4.5,5.8c-1.4,0.8-3,1.2-4.6,1.2c-3.4,0-6.5-1.8-8.1-4.6c-3.4-5.8-10.4-8.7-17.2-6.9h0
	C34.8,32.1,30,38.1,30,44.8v53.6c0,6.7,4.7,12.6,11.4,14.3c6.8,1.8,13.7-1.1,17.2-6.9c1.6-2.8,4.7-4.6,8.1-4.6
	c1.6,0,3.2,0.4,4.6,1.2C73.6,103.8,75.2,105.9,75.8,108.3L75.8,108.3z"/>
<path class="st0" d="M206.2,20.6c0,4.9-4.1,9-9.1,9c-6.3,0-11.4,4.5-11.4,10.6v32.4h3.5c5,0,9.1,4.5,9.1,9.4c0,4.9-4.1,9-9.1,9h-3.5
	v31.5c0,4.9-4.1,9-9.1,9c-5,0-9.1-4-9.1-9V91h-3.8c-5,0-9.1-4-9.1-9c0-4.9,4.1-9.4,9.1-9.4h3.8V40.2c0-16,13.3-28.5,29.7-28.5
	C202.1,11.7,206.2,15.7,206.2,20.6L206.2,20.6z"/>
<path class="st1" d="M266.8,60.9v20c0,5.9-4.1,9.9-9.1,9.9h-32v11.6c0,4.5,2.8,8.5,7.2,10.3c4.2,1.7,9.1,0.7,12.4-2.5
	c1.7-1.7,4-2.6,6.4-2.6s4.6,0.9,6.4,2.6c1.7,1.7,2.7,3.9,2.7,6.3c0,2.4-1,4.6-2.7,6.3c-5.4,5.4-13.1,8.5-21,8.5
	c-3.9,0-7.7-0.7-11.2-2.2c-11.2-4.5-18.4-15-18.4-28.2V60.4c0-14.6,13.3-27.5,29.7-27.5C253.5,32.9,266.8,45.9,266.8,60.9
	L266.8,60.9z M248.5,61.9c0-6.2-5.1-11.1-11.4-11.1c-6.3,0-11.4,5-11.4,11.1v10.6h22.9L248.5,61.9z"/>
<path class="st1" d="M479.4,60.9v20c0,5.9-4.1,9.9-9.1,9.9h-32v11.6c0,4.5,2.8,8.5,7.2,10.3c4.2,1.7,9.1,0.7,12.4-2.5
	c1.7-1.7,4-2.6,6.4-2.6c2.4,0,4.6,0.9,6.4,2.6s2.7,3.9,2.7,6.3c0,2.4-1,4.6-2.7,6.3c-5.4,5.4-13,8.5-21,8.5c-3.9,0-7.7-0.7-11.2-2.2
	c-11.2-4.5-18.4-15-18.4-28.2V60.4c0-14.6,13.3-27.5,29.7-27.5C466,32.9,479.4,45.9,479.4,60.9L479.4,60.9z M461.1,61.9
	c0-6.2-5.1-11.1-11.4-11.1c-6.3,0-11.4,5-11.4,11.1v10.6h22.9V61.9z"/>
<path class="st0" d="M250.7,30.1h-13c-0.5,0,0.3-0.9,0.3-1.4v-8.2c0-5.1,2.8-10,7.9-10h4.8c5,0,9.3,4.4,9.3,9.4v0.6
	C260,25.5,255.7,30.1,250.7,30.1z"/>
<path class="st1" d="M145.3,60.4v61.2c0,5.9-4.1,9.9-9.1,9.9h-20.6c-16.3,0-29.7-13.5-29.7-29.5c0-16,13.3-29.5,29.7-29.5H127V61.3
	c0-4.3-2.7-8.1-6.9-9.9c-1.3-0.5-2.7-0.7-4.1-0.7c-2.9,0-5.7,1.1-7.9,3c-1.6,1.7-3.9,2.7-6.4,2.7c-2.4,0-4.8-1.1-6.5-2.9
	c-1.7-1.7-2.6-3.9-2.6-6.2c0-2.3,1-4.5,2.7-6.2c5.4-5.3,12.9-8.3,20.7-8.3c3.8,0,7.6,0.7,11.1,2.2C138.1,39.4,145.3,49.7,145.3,60.4
	L145.3,60.4z M127,90.9h-11.5c-6.3,0-11.4,5.5-11.4,11.6c0,6.1,5.1,11.1,11.4,11.1H127V90.9z"/>
<path class="st1" d="M353.6,117.4c1.4,1.7,2,3.8,1.7,5.9c-0.3,2-1.3,3.8-2.9,5.1c-1.3,1.1-3.1,1.7-4.9,1.7c-2.3,0-4.6-1-6.2-2.8
	l-0.2-0.3l-6.5-8.2l-0.3,0.6c-3.8,6-9.7,10.1-16.7,11.6c-1.9,0.4-3.7,0.6-5.6,0.6c-5.2,0-10.2-1.5-14.5-4.4c-6-4-9.9-10-11-16.8
	c-1.1-6.8,0.7-13.7,5-19.4L302,79.2l-9-11.3c-4.7-6.9-5.1-15.8-1-23.2c4.1-7.1,11.7-11.4,19.9-11.4c0.3,0,0.7,0,0.9,0
	c8.4,0.2,16.1,5.2,19.8,12.8c3.6,7.6,2.7,15-2.5,21.7l-8,11.5l10.7,12l2-3.4c1.4-2.4,3.9-3.9,6.8-3.9c1.5,0,2.9,0.4,4.2,1.2
	c3.7,2.1,4.9,6.8,2.8,10.6l-5.4,8.7L353.6,117.4z M307.3,59.6l4.9,6.2l4.5-5.7c1.3-1.7,1.6-3.8,0.7-5.6c-0.9-2-2.9-3.2-5.1-3.3h-0.2
	c-2.1,0-3.9,1.1-5,2.9v0C306.1,55.8,306.2,57.9,307.3,59.6z M324.1,105.6l-11.9-15.2l-7.8,9.8c-1.8,2.3-2.5,4.9-2,7.5
	c0.4,2.7,1.8,4.8,4.2,6.3c2.3,1.6,5.1,2.1,7.7,1.6c2.6-0.6,4.9-2.2,6.4-4.5L324.1,105.6z"/>
<path class="st0" d="M488.7,152.2H2c-0.6,0-1.1-0.5-1.1-1.1v-0.3c0-0.6,0.5-1.1,1.1-1.1h486.7c0.6,0,1.1,0.6,1.1,1.1v0.3
	C489.9,151.7,489.4,152.2,488.7,152.2z"/>
<path class="st0" d="M38.3,182L38.3,182c0-6.9,5.1-12.5,12.2-12.5c4.4,0,7,1.6,9.4,3.8l-1.8,2c-2-1.9-4.3-3.3-7.6-3.3
	c-5.4,0-9.4,4.4-9.4,9.9v0.1c0,5.6,4,10,9.4,10c3.3,0,5.5-1.3,7.8-3.5l1.8,1.7c-2.5,2.6-5.3,4.3-9.6,4.3
	C43.3,194.5,38.3,189,38.3,182L38.3,182z"/>
<path class="st1" d="M65.1,182L65.1,182c0-6.7,5-12.5,12.3-12.5c7.3,0,12.3,5.7,12.3,12.4v0.1c0,6.7-5,12.5-12.3,12.5
	C70,194.5,65.1,188.7,65.1,182L65.1,182z M86.8,182L86.8,182c0-5.5-4-10-9.5-10s-9.5,4.4-9.5,9.9v0.1c0,5.5,4,10,9.5,10
	C82.9,192,86.8,187.5,86.8,182L86.8,182z"/>
<path class="st0" d="M97.5,169.9h17.4v2.5h-14.6v8.6h13.1v2.5h-13.1v10.5h-2.7L97.5,169.9z"/>
<path class="st0" d="M122.2,169.9h17.3v2.5h-14.6v8.6h13v2.5h-13v10.5h-2.7V169.9z"/>
<path class="st0" d="M146.8,169.9h17.4v2.5h-14.7v8.3h13.2v2.5h-13.2v8.4h14.9v2.5h-17.6V169.9z"/>
<path class="st0" d="M172,169.9h17.4v2.5h-14.7v8.3h13.2v2.5h-13.2v8.4h14.9v2.5H172V169.9z"/>
<path class="st0" d="M209.5,169.9H227v2.5h-14.7v8.3h13.2v2.5h-13.2v8.4h14.9v2.5h-17.6V169.9z"/>
<path class="st0" d="M242.2,181.8l-9-11.8h3.2l7.4,9.9l7.3-9.9h3.2l-8.9,11.8l9.3,12.3h-3.3l-7.7-10.4l-7.7,10.4h-3.1L242.2,181.8z"
	/>
<path class="st1" d="M261.8,169.9h9c5.5,0,9,2.9,9,7.7v0c0,5.2-4.3,7.9-9.5,7.9h-5.9v8.5h-2.7V169.9z M270.5,183
	c4,0,6.6-2.2,6.6-5.3v0c0-3.4-2.6-5.2-6.5-5.2h-6.1V183H270.5z"/>
<path class="st0" d="M286.9,169.9h17.4v2.5h-14.7v8.3h13.1v2.5h-13.1v8.4h14.9v2.5h-17.6V169.9z"/>
<path class="st1" d="M312,169.9h10.4c3,0,5.4,0.9,6.9,2.4c1.1,1.1,1.8,2.8,1.8,4.7v0.1c0,4-2.8,6.3-6.5,7l7.4,9.9h-3.4l-7-9.4h-6.9
	v9.4H312L312,169.9z M322.2,182.2c3.6,0,6.2-1.9,6.2-5v-0.1c0-2.9-2.2-4.7-6.2-4.7h-7.4v9.8H322.2z"/>
<path class="st0" d="M339.2,169.9h2.8v24.1h-2.8V169.9z"/>
<path class="st0" d="M351.1,169.9h17.4v2.5h-14.7v8.3H367v2.5h-13.2v8.4h14.9v2.5h-17.6V169.9z"/>
<path class="st0" d="M376.3,169.9h2.5l15.2,19.3v-19.3h2.7v24.1h-2.2l-15.6-19.8v19.8h-2.6L376.3,169.9z"/>
<path class="st0" d="M404.5,182L404.5,182c0-6.9,5.1-12.5,12.2-12.5c4.4,0,7,1.6,9.4,3.8l-1.8,2c-2.1-1.9-4.3-3.3-7.6-3.3
	c-5.4,0-9.4,4.4-9.4,9.9v0.1c0,5.6,4,10,9.4,10c3.3,0,5.5-1.3,7.8-3.5l1.8,1.7c-2.5,2.6-5.3,4.3-9.6,4.3
	C409.6,194.5,404.5,189,404.5,182L404.5,182z"/>
<path class="st0" d="M433.1,169.9h17.4v2.5h-14.7v8.3H449v2.5h-13.2v8.4h14.9v2.5h-17.6V169.9z"/>
</svg>
