<svg xmlns="http://www.w3.org/2000/svg" viewBox="0 0 126.39 29.34"><defs><style>      .cls-1 {        fill: #67a86f;      }    </style></defs><g id="Capa_2" data-name="Capa 2"><g id="Capa_1-2" data-name="Capa 1"><g><rect class="cls-1" x="0.14" y="28.52" width="29.74" height="0.82"></rect><path class="cls-1" d="M30,4.66c0-1.37,0-2.79-.11-4.27l0-.39H.13l0,.39A65.59,65.59,0,0,0,2.43,22.61a28,28,0,0,0,1.19,3.28l.11.23H26.22l.11-.23a35.54,35.54,0,0,0,1.91-6c1-.28,5.57-1.66,8-4.47s3.89-6.92,2.19-9.5C37.47,4.49,35.23,3.16,30,4.66ZM25.69,25.3H4.26a29.67,29.67,0,0,1-1-2.93A64.3,64.3,0,0,1,.91.82H29C29.71,15.05,26.33,23.79,25.69,25.3ZM35.6,14.88c-2,2.32-5.68,3.64-7.15,4.09A66.49,66.49,0,0,0,29.94,5.51c3.89-1.15,6.65-.85,7.78.87C39,8.32,38.09,12,35.6,14.88Z"></path><rect class="cls-1" x="87.94" y="28.52" width="29.86" height="0.82"></rect><path class="cls-1" d="M124.61,9.37c-1.18-.4-2.31-.1-3.8.48a26.86,26.86,0,0,0,.43-4.52v-.4H84.5v.41c0,.4,0,9.85,6,15.87C93.64,24.36,97.83,26,103,26s9.32-1.6,12.42-4.75A16.8,16.8,0,0,0,117,19.3l.49-.1a24.87,24.87,0,0,0,5.09-1.43,6,6,0,0,0,3.79-5.57A2.94,2.94,0,0,0,124.61,9.37Zm-9.79,11.26c-2.94,3-6.93,4.51-11.84,4.51s-8.92-1.52-11.89-4.51c-5.06-5.08-5.68-13-5.76-14.88H98V9.37H94.73l-.4,7.19h8.07L102,9.37H98.77V5.75h21.64C120.36,7.62,119.83,15.54,114.82,20.63Zm-13.6-10.44.31,5.55H95.2l.3-5.55Zm21,6.83a23.05,23.05,0,0,1-4.59,1.31,23.16,23.16,0,0,0,3-7.51c1.61-.66,2.69-1,3.72-.67a2.12,2.12,0,0,1,1.22,2.08A5.19,5.19,0,0,1,122.26,17Z"></path><rect class="cls-1" x="43.48" y="15.03" width="36.8" height="0.82"></rect></g></g></g></svg>